<svg width="138" height="35" viewBox="0 0 138 35" fill="none" xmlns="http://www.w3.org/2000/svg">
<path d="M12.7441 6.27539L6.13477 27H0.0175781L9.49219 1.40625H13.3594L12.7441 6.27539ZM18.2285 27L11.6016 6.27539L10.916 1.40625H14.8359L24.3457 27H18.2285ZM17.9473 17.4727V21.9023H4.60547V17.4727H17.9473Z" fill="black"/>
<path d="M26.543 7.98047H32.0625V27.8789C32.0625 29.3438 31.7871 30.5801 31.2363 31.5879C30.6855 32.6074 29.8887 33.375 28.8457 33.8906C27.8145 34.418 26.5781 34.6816 25.1367 34.6816C24.668 34.6816 24.2227 34.6582 23.8008 34.6113C23.3789 34.5762 22.9277 34.5 22.4473 34.3828V30.1992C22.7402 30.2461 23.0215 30.2812 23.291 30.3047C23.5488 30.3398 23.8242 30.3574 24.1172 30.3574C24.6445 30.3574 25.084 30.2695 25.4355 30.0938C25.7988 29.918 26.0742 29.6426 26.2617 29.2676C26.4492 28.9043 26.543 28.4414 26.543 27.8789V7.98047ZM26.1211 3.05859C26.1211 2.26172 26.4023 1.61133 26.9648 1.10742C27.5273 0.591797 28.2715 0.333984 29.1973 0.333984C30.1113 0.333984 30.8496 0.591797 31.4121 1.10742C31.9746 1.61133 32.2559 2.26172 32.2559 3.05859C32.2559 3.84375 31.9746 4.49414 31.4121 5.00977C30.8496 5.51367 30.1113 5.76562 29.1973 5.76562C28.2715 5.76562 27.5273 5.51367 26.9648 5.00977C26.4023 4.49414 26.1211 3.84375 26.1211 3.05859Z" fill="black"/>
<path d="M46.916 22.4121V7.98047H52.4355V27H47.2676L46.916 22.4121ZM47.4961 18.5273L49.0078 18.4922C49.0078 19.7695 48.8555 20.9473 48.5508 22.0254C48.2578 23.1035 47.8125 24.041 47.2148 24.8379C46.6289 25.6348 45.8965 26.2559 45.0176 26.7012C44.1504 27.1348 43.1367 27.3516 41.9766 27.3516C41.0391 27.3516 40.1777 27.2227 39.3926 26.9648C38.6191 26.6953 37.9512 26.2793 37.3887 25.7168C36.8262 25.1426 36.3926 24.4102 36.0879 23.5195C35.7832 22.6172 35.6309 21.5391 35.6309 20.2852V7.98047H41.1152V20.3203C41.1152 20.8125 41.1738 21.2344 41.291 21.5859C41.4199 21.9258 41.5898 22.207 41.8008 22.4297C42.0234 22.6523 42.293 22.8164 42.6094 22.9219C42.9375 23.0273 43.2949 23.0801 43.6816 23.0801C44.6543 23.0801 45.416 22.8809 45.9668 22.4824C46.5293 22.0723 46.9219 21.5273 47.1445 20.8477C47.3789 20.1562 47.4961 19.3828 47.4961 18.5273Z" fill="black"/>
<path d="M67.0781 22.7461V0H72.5977V27H67.6406L67.0781 22.7461ZM55.2305 17.7188V17.3496C55.2305 15.9082 55.3887 14.5957 55.7051 13.4121C56.0332 12.2168 56.5078 11.1914 57.1289 10.3359C57.7617 9.46875 58.541 8.80078 59.4668 8.33203C60.3926 7.86328 61.4531 7.62891 62.6484 7.62891C63.75 7.62891 64.7109 7.875 65.5312 8.36719C66.3516 8.84766 67.0488 9.52734 67.623 10.4062C68.209 11.2734 68.6836 12.2988 69.0469 13.4824C69.4102 14.6543 69.6855 15.9258 69.873 17.2969V17.9297C69.6973 19.2422 69.4219 20.4668 69.0469 21.6035C68.6836 22.7402 68.209 23.7422 67.623 24.6094C67.0488 25.4648 66.3457 26.1387 65.5137 26.6309C64.6934 27.1113 63.7266 27.3516 62.6133 27.3516C61.418 27.3516 60.3574 27.1113 59.4316 26.6309C58.5176 26.1504 57.75 25.4766 57.1289 24.6094C56.5078 23.7422 56.0332 22.7227 55.7051 21.5508C55.3887 20.3789 55.2305 19.1016 55.2305 17.7188ZM60.7148 17.3496V17.7188C60.7148 18.4688 60.7676 19.166 60.873 19.8105C60.9902 20.4551 61.1777 21.0234 61.4355 21.5156C61.6934 22.0078 62.0332 22.3945 62.4551 22.6758C62.877 22.9453 63.3926 23.0801 64.002 23.0801C64.8223 23.0801 65.4961 22.8926 66.0234 22.5176C66.5508 22.1309 66.9492 21.5977 67.2188 20.918C67.4883 20.2383 67.6289 19.4473 67.6406 18.5449V16.6992C67.6406 15.9492 67.5645 15.2754 67.4121 14.6777C67.2598 14.0801 67.0312 13.5762 66.7266 13.166C66.4336 12.7559 66.0645 12.4453 65.6191 12.2344C65.1738 12.0117 64.6465 11.9004 64.0371 11.9004C63.4395 11.9004 62.9297 12.041 62.5078 12.3223C62.0859 12.5918 61.7402 12.9727 61.4707 13.4648C61.2129 13.957 61.0195 14.5371 60.8906 15.2051C60.7734 15.8613 60.7148 16.5762 60.7148 17.3496Z" fill="black"/>
<path d="M86.3262 22.4648V14.3086C86.3262 13.7344 86.2383 13.2422 86.0625 12.832C85.8867 12.4219 85.6113 12.0996 85.2363 11.8652C84.8613 11.6309 84.375 11.5137 83.7773 11.5137C83.2734 11.5137 82.834 11.6016 82.459 11.7773C82.0957 11.9531 81.8145 12.2051 81.6152 12.5332C81.4277 12.8613 81.334 13.2656 81.334 13.7461H75.8496C75.8496 12.8906 76.043 12.0938 76.4297 11.3555C76.8164 10.6172 77.3672 9.9668 78.082 9.4043C78.8086 8.8418 79.6758 8.4082 80.6836 8.10352C81.6914 7.78711 82.8223 7.62891 84.0762 7.62891C85.5645 7.62891 86.8887 7.88086 88.0488 8.38477C89.2207 8.87695 90.1465 9.62109 90.8262 10.6172C91.5059 11.6016 91.8457 12.8438 91.8457 14.3438V22.3066C91.8457 23.4551 91.9102 24.3574 92.0391 25.0137C92.1797 25.6582 92.3789 26.2207 92.6367 26.7012V27H87.0996C86.8418 26.4492 86.6484 25.7695 86.5195 24.9609C86.3906 24.1406 86.3262 23.3086 86.3262 22.4648ZM87.0117 15.3984L87.0469 18.4219H84.3223C83.7129 18.4219 83.1855 18.498 82.7402 18.6504C82.3066 18.8027 81.9551 19.0137 81.6855 19.2832C81.416 19.541 81.2168 19.8457 81.0879 20.1973C80.9707 20.5371 80.9121 20.9121 80.9121 21.3223C80.9121 21.709 81.0059 22.0605 81.1934 22.377C81.3809 22.6816 81.6387 22.9219 81.9668 23.0977C82.2949 23.2734 82.6758 23.3613 83.1094 23.3613C83.8242 23.3613 84.4336 23.2207 84.9375 22.9395C85.4531 22.6582 85.8516 22.3184 86.1328 21.9199C86.4141 21.5098 86.5547 21.1289 86.5547 20.7773L87.873 23.0625C87.6621 23.5312 87.4043 24.0176 87.0996 24.5215C86.7949 25.0137 86.4082 25.4766 85.9395 25.9102C85.4707 26.332 84.9023 26.6777 84.2344 26.9473C83.5781 27.2168 82.7871 27.3516 81.8613 27.3516C80.666 27.3516 79.582 27.1113 78.6094 26.6309C77.6367 26.1387 76.8574 25.4648 76.2715 24.6094C75.6973 23.7539 75.4102 22.7695 75.4102 21.6562C75.4102 20.6602 75.5918 19.7754 75.9551 19.002C76.3184 18.2285 76.8633 17.5723 77.5898 17.0332C78.3281 16.4941 79.2539 16.0898 80.3672 15.8203C81.4805 15.5391 82.7812 15.3984 84.2695 15.3984H87.0117Z" fill="black"/>
<path d="M95.7305 1.40625H105.557C107.514 1.40625 109.207 1.69922 110.637 2.28516C112.078 2.87109 113.186 3.73828 113.959 4.88672C114.732 6.03516 115.119 7.45312 115.119 9.14062C115.119 10.5469 114.891 11.7422 114.434 12.7266C113.977 13.7109 113.332 14.5254 112.5 15.1699C111.68 15.8145 110.719 16.3359 109.617 16.7344L107.754 17.7539H99.3867L99.3516 13.3066H105.574C106.43 13.3066 107.139 13.1543 107.701 12.8496C108.264 12.5449 108.686 12.1172 108.967 11.5664C109.26 11.0039 109.406 10.3477 109.406 9.59766C109.406 8.82422 109.26 8.15625 108.967 7.59375C108.674 7.03125 108.24 6.60352 107.666 6.31055C107.104 6.00586 106.4 5.85352 105.557 5.85352H101.461V27H95.7305V1.40625ZM109.898 27L104.15 15.627L110.197 15.6094L116.033 26.7363V27H109.898Z" fill="black"/>
<path d="M132.275 20.25C132.275 19.8164 132.211 19.4297 132.082 19.0898C131.953 18.7383 131.719 18.416 131.379 18.123C131.039 17.8301 130.559 17.5371 129.938 17.2441C129.316 16.9395 128.502 16.6289 127.494 16.3125C126.346 15.9375 125.25 15.5156 124.207 15.0469C123.176 14.5664 122.256 14.0098 121.447 13.377C120.639 12.7441 120 12.0059 119.531 11.1621C119.074 10.3184 118.846 9.33398 118.846 8.20898C118.846 7.11914 119.086 6.13477 119.566 5.25586C120.047 4.37695 120.721 3.62695 121.588 3.00586C122.455 2.37305 123.475 1.89258 124.646 1.56445C125.818 1.22461 127.107 1.05469 128.514 1.05469C130.389 1.05469 132.035 1.38867 133.453 2.05664C134.883 2.71289 135.996 3.63867 136.793 4.83398C137.59 6.01758 137.988 7.39453 137.988 8.96484H132.293C132.293 8.27344 132.146 7.66406 131.854 7.13672C131.572 6.59766 131.139 6.17578 130.553 5.87109C129.979 5.56641 129.258 5.41406 128.391 5.41406C127.547 5.41406 126.838 5.54297 126.264 5.80078C125.701 6.04688 125.273 6.38672 124.98 6.82031C124.699 7.25391 124.559 7.72852 124.559 8.24414C124.559 8.6543 124.664 9.0293 124.875 9.36914C125.098 9.69727 125.414 10.0078 125.824 10.3008C126.246 10.582 126.762 10.8516 127.371 11.1094C127.98 11.3672 128.678 11.6133 129.463 11.8477C130.834 12.2812 132.047 12.7617 133.102 13.2891C134.168 13.8164 135.064 14.4141 135.791 15.082C136.518 15.75 137.062 16.5059 137.426 17.3496C137.801 18.1934 137.988 19.1484 137.988 20.2148C137.988 21.3516 137.766 22.3594 137.32 23.2383C136.887 24.1172 136.254 24.8672 135.422 25.4883C134.602 26.0977 133.617 26.5605 132.469 26.877C131.32 27.1934 130.037 27.3516 128.619 27.3516C127.33 27.3516 126.059 27.1875 124.805 26.8594C123.551 26.5195 122.414 26.0039 121.395 25.3125C120.387 24.6211 119.578 23.7422 118.969 22.6758C118.371 21.5977 118.072 20.3203 118.072 18.8438H123.803C123.803 19.6172 123.914 20.2734 124.137 20.8125C124.359 21.3398 124.676 21.7676 125.086 22.0957C125.508 22.4238 126.018 22.6582 126.615 22.7988C127.213 22.9395 127.881 23.0098 128.619 23.0098C129.475 23.0098 130.166 22.8926 130.693 22.6582C131.232 22.4121 131.631 22.0781 131.889 21.6562C132.146 21.2344 132.275 20.7656 132.275 20.25Z" fill="black"/>
</svg>
